<svg width="22" height="26" viewBox="0 0 22 26" fill="none" xmlns="http://www.w3.org/2000/svg">
<g clip-path="url(#clip0)">
<path d="M11.1408 25V24.5V25ZM0.999959 19.5577L0.500016 19.5502L0.497681 19.705L0.583295 19.8341L0.999959 19.5577ZM21.2817 19.5577L21.6984 19.8341L21.784 19.705L21.7816 19.5502L21.2817 19.5577ZM11.1408 1.5C13.6703 1.5 15.7113 3.54093 15.7113 6.07042H16.7113C16.7113 2.98865 14.2226 0.5 11.1408 0.5V1.5ZM15.7113 6.07042C15.7113 8.59991 13.6703 10.6408 11.1408 10.6408V11.6408C14.2226 11.6408 16.7113 9.1522 16.7113 6.07042H15.7113ZM11.1408 10.6408C8.6113 10.6408 6.57037 8.59991 6.57037 6.07042H5.57037C5.57037 9.1522 8.05902 11.6408 11.1408 11.6408V10.6408ZM6.57037 6.07042C6.57037 3.54093 8.6113 1.5 11.1408 1.5V0.5C8.05902 0.5 5.57037 2.98865 5.57037 6.07042H6.57037ZM11.1408 24.5C7.22967 24.5 3.57861 22.5406 1.41662 19.2813L0.583295 19.8341C2.93056 23.3727 6.8945 25.5 11.1408 25.5V24.5ZM1.4999 19.5653C1.50987 18.904 1.84485 18.2784 2.47241 17.6902C3.10207 17.1002 3.99218 16.5826 5.01472 16.1549C7.06184 15.2987 9.51893 14.8521 11.1408 14.8521V13.8521C9.3824 13.8521 6.79441 14.3266 4.62886 15.2324C3.54506 15.6857 2.53693 16.2593 1.78861 16.9606C1.03816 17.6638 0.515399 18.5297 0.500016 19.5502L1.4999 19.5653ZM11.1408 14.8521C12.7541 14.8521 15.2113 15.2986 17.2608 16.155C18.2845 16.5827 19.1762 17.1004 19.8072 17.6906C20.4362 18.2789 20.7718 18.9045 20.7817 19.5653L21.7816 19.5502C21.7662 18.5293 21.242 17.6633 20.4903 16.9603C19.7407 16.2591 18.731 15.6855 17.6463 15.2323C15.4789 14.3267 12.891 13.8521 11.1408 13.8521V14.8521ZM20.865 19.2813C18.703 22.5406 15.052 24.5 11.1408 24.5V25.5C15.3872 25.5 19.3511 23.3727 21.6984 19.8341L20.865 19.2813Z" stroke="#9EA0A5"/>
</g>
<defs>
<clipPath id="clip0">
<rect width="22" height="26" fill="white"/>
</clipPath>
</defs>
</svg>
